<?xml version="1.0" encoding="utf-8"?>
<!-- Generator: Adobe Illustrator 17.1.0, SVG Export Plug-In . SVG Version: 6.00 Build 0)  -->
<!DOCTYPE svg PUBLIC "-//W3C//DTD SVG 1.1//EN" "http://www.w3.org/Graphics/SVG/1.1/DTD/svg11.dtd">
<svg version="1.1" id="Layer_1" xmlns="http://www.w3.org/2000/svg" xmlns:xlink="http://www.w3.org/1999/xlink" x="0px" y="0px"
	 viewBox="0 362 612 181.3" enable-background="new 0 362 612 181.3" xml:space="preserve">
<path fill="#DF1A23" d="M457.9,394.6l-0.1,82h121.9c12.4,0,22.5-10.1,22.5-22.5v-60.4c0-13.3-11.9-10.7-25.2-9.5L457.9,394.6z"/>
<polygon fill="#F8931F" points="310.4,407.6 310.4,476.5 454.6,476.5 454.6,394.8 "/>
<polygon fill="#F0E513" points="163,420.5 163,476.5 307.2,476.5 307.2,407.9 "/>
<path fill="#0071C1" d="M15.6,454L15.6,454c0,12.4,10.1,22.5,22.5,22.5H160v-55.8L36.2,431.5C24.3,432.7,15.6,442.3,15.6,454"/>
<g>
	<path fill="white" d="M65.2,499c1.2-0.2,2.6-0.3,4.1-0.3c2.8,0,4.8,0.6,6.1,1.9c1.3,1.2,2.1,3,2.1,5.4c0,2.5-0.8,4.5-2.2,5.9
		c-1.4,1.4-3.7,2.2-6.7,2.2c-1.4,0-2.5-0.1-3.5-0.2V499z M67.1,512.3c0.5,0.1,1.2,0.1,2,0.1c4.2,0,6.4-2.3,6.4-6.4
		c0-3.6-2-5.8-6.1-5.8c-1,0-1.8,0.1-2.3,0.2V512.3z"/>
	<path fill="white" d="M89.1,510.9c0,1.1,0,2.1,0.1,3h-1.7l-0.1-1.8h0c-0.5,0.9-1.7,2-3.6,2c-1.7,0-3.7-0.9-3.7-4.7V503h2v6
		c0,2.1,0.6,3.4,2.4,3.4c1.3,0,2.2-0.9,2.6-1.8c0.1-0.3,0.2-0.6,0.2-1V503h2V510.9z M81.4,500c0-0.6,0.5-1.1,1.1-1.1
		s1.1,0.5,1.1,1.1c0,0.6-0.4,1.1-1.1,1.1C81.9,501.1,81.4,500.6,81.4,500z M85.6,500c0-0.6,0.5-1.1,1.1-1.1s1.1,0.5,1.1,1.1
		c0,0.6-0.4,1.1-1.1,1.1C86.1,501.1,85.6,500.6,85.6,500z"/>
	<path fill="white" d="M97.8,504.9c-0.4-0.3-1.2-0.6-2.2-0.6c-1.2,0-1.8,0.7-1.8,1.5c0,0.9,0.6,1.3,2.1,1.8c1.9,0.7,2.8,1.7,2.8,3.3
		c0,1.6-1,2.8-2.9,3.1l-0.6,1c0.8,0.1,1.6,0.7,1.6,1.5c0,1.3-1.1,1.8-2.3,1.8c-0.5,0-1.1-0.2-1.5-0.4l0.3-1c0.4,0.2,0.8,0.3,1.2,0.3
		c0.5,0,1-0.2,1-0.7c0-0.6-0.7-0.8-1.7-0.9l0.9-1.6c-1.1,0-2.2-0.3-3-0.7l0.5-1.5c0.6,0.4,1.6,0.8,2.6,0.8c1.4,0,2.1-0.7,2.1-1.6
		c0-0.9-0.6-1.5-2-2c-1.9-0.7-2.9-1.8-2.9-3.1c0-1.7,1.4-3.2,3.7-3.2c1.1,0,2.1,0.3,2.7,0.7L97.8,504.9z"/>
	<path fill="white" d="M110.3,510.9c0,1.1,0,2.1,0.1,3h-1.7l-0.1-1.8h0c-0.5,0.9-1.7,2-3.6,2c-1.7,0-3.7-0.9-3.7-4.7V503h2v6
		c0,2.1,0.6,3.4,2.4,3.4c1.3,0,2.2-0.9,2.6-1.8c0.1-0.3,0.2-0.6,0.2-1V503h2V510.9z M102.6,500c0-0.6,0.5-1.1,1.1-1.1
		s1.1,0.5,1.1,1.1c0,0.6-0.4,1.1-1.1,1.1C103.1,501.1,102.6,500.6,102.6,500z M106.8,500c0-0.6,0.5-1.1,1.1-1.1s1.1,0.5,1.1,1.1
		c0,0.6-0.4,1.1-1.1,1.1C107.2,501.1,106.8,500.6,106.8,500z"/>
	<path fill="white" d="M115.5,508L115.5,508c0.3-0.4,0.7-0.8,1-1.2l3.2-3.7h2.4l-4.2,4.4l4.8,6.4h-2.4l-3.7-5.2l-1,1.1v4.1h-1.9V498h1.9V508z"/>
</g>
<g>
	<path fill="white" d="M217.9,506.2c0,5.2-3.2,7.9-7,7.9c-4,0-6.8-3.1-6.8-7.6c0-4.8,3-7.9,7-7.9C215.3,498.5,217.9,501.7,217.9,506.2z
		 M206.2,506.4c0,3.2,1.7,6.1,4.8,6.1c3.1,0,4.8-2.8,4.8-6.3c0-3-1.6-6.1-4.8-6.1C207.8,500.1,206.2,503.1,206.2,506.4z"/>
	<path fill="white" d="M220.4,506.4c0-1.3,0-2.4-0.1-3.4h1.7l0.1,2.1h0.1c0.5-1.5,1.7-2.4,3-2.4c0.2,0,0.4,0,0.6,0.1v1.9c-0.2,0-0.4-0.1-0.7-0.1
		c-1.4,0-2.4,1.1-2.6,2.5c0,0.3-0.1,0.6-0.1,0.9v5.8h-1.9V506.4z"/>
	<path fill="white" d="M230.6,499.9v3.1h2.8v1.5h-2.8v5.8c0,1.3,0.4,2.1,1.5,2.1c0.5,0,0.9-0.1,1.1-0.1l0.1,1.5c-0.4,0.2-1,0.3-1.7,0.3
		c-0.9,0-1.7-0.3-2.1-0.8c-0.6-0.6-0.8-1.5-0.8-2.8v-5.9H227V503h1.7v-2.6L230.6,499.9z"/>
	<path fill="white" d="M241.6,513.9l-0.2-1.4h-0.1c-0.6,0.8-1.8,1.6-3.3,1.6c-2.2,0-3.3-1.5-3.3-3.1c0-2.6,2.3-4,6.5-4v-0.2
		c0-0.9-0.2-2.5-2.5-2.5c-1,0-2.1,0.3-2.8,0.8l-0.4-1.3c0.9-0.6,2.2-1,3.6-1c3.3,0,4.1,2.3,4.1,4.4v4c0,0.9,0,1.9,0.2,2.6H241.6z
		 M241.3,508.3c-2.1,0-4.6,0.3-4.6,2.4c0,1.3,0.8,1.9,1.9,1.9c1.4,0,2.3-0.9,2.6-1.8c0.1-0.2,0.1-0.4,0.1-0.6V508.3z"/>
</g>
<g>
	<path fill="white" d="M355.3,513.9v-6.4l-4.8-8.7h2.2l2.1,4.2c0.6,1.1,1,2.1,1.5,3.1h0c0.4-1,0.9-2,1.5-3.1l2.2-4.2h2.2l-5.1,8.7v6.4H355.3z"/>
	<path fill="white" d="M371.8,510.9c0,1.1,0,2.1,0.1,3h-1.7l-0.1-1.8h0c-0.5,0.9-1.7,2-3.6,2c-1.7,0-3.7-0.9-3.7-4.7V503h2v6
		c0,2.1,0.6,3.4,2.4,3.4c1.3,0,2.2-0.9,2.6-1.8c0.1-0.3,0.2-0.6,0.2-1V503h2V510.9z M364.1,500c0-0.6,0.5-1.1,1.1-1.1
		s1.1,0.5,1.1,1.1c0,0.6-0.4,1.1-1.1,1.1C364.6,501.1,364.1,500.6,364.1,500z M368.3,500c0-0.6,0.5-1.1,1.1-1.1s1.1,0.5,1.1,1.1
		c0,0.6-0.4,1.1-1.1,1.1C368.7,501.1,368.3,500.6,368.3,500z"/>
	<path fill="white" d="M377,508L377,508c0.3-0.4,0.7-0.8,1-1.2l3.2-3.7h2.4l-4.2,4.4l4.8,6.4h-2.4l-3.7-5.2l-1,1.1v4.1h-1.9V498h1.9V508z"/>
	<path fill="white" d="M385.3,511.8c0.6,0.4,1.6,0.8,2.6,0.8c1.4,0,2.1-0.7,2.1-1.6c0-0.9-0.6-1.5-2-2c-1.9-0.7-2.9-1.8-2.9-3.1
		c0-1.7,1.4-3.2,3.7-3.2c1.1,0,2.1,0.3,2.7,0.7l-0.5,1.4c-0.4-0.3-1.2-0.6-2.2-0.6c-1.2,0-1.8,0.7-1.8,1.5c0,0.9,0.6,1.3,2.1,1.8
		c1.9,0.7,2.8,1.7,2.8,3.3c0,1.9-1.5,3.2-4,3.2c-1.2,0-2.3-0.3-3-0.7L385.3,511.8z"/>
	<path fill="white" d="M395.5,508.8c0,2.7,1.7,3.8,3.7,3.8c1.4,0,2.3-0.2,3-0.6l0.3,1.4c-0.7,0.3-1.9,0.7-3.6,0.7c-3.3,0-5.3-2.2-5.3-5.5
		s1.9-5.8,5.1-5.8c3.5,0,4.5,3.1,4.5,5.1c0,0.4,0,0.7-0.1,0.9H395.5z M401.3,507.4c0-1.3-0.5-3.2-2.7-3.2c-2,0-2.9,1.8-3,3.2H401.3z
		"/>
	<path fill="white" d="M407.5,508L407.5,508c0.3-0.4,0.7-0.8,1-1.2l3.2-3.7h2.4l-4.2,4.4l4.8,6.4h-2.4l-3.7-5.2l-1,1.1v4.1h-1.9V498h1.9V508z"/>
</g>
<g>
	<path fill="white" d="M493,513.4c-0.7,0.4-2.1,0.7-4,0.7l-0.5,0.9c0.8,0.2,1.6,0.8,1.6,1.7c0,1.3-1.1,1.8-2.3,1.8c-0.6,0-1.2-0.2-1.6-0.4l0.3-1
		c0.3,0.2,0.8,0.3,1.3,0.3c0.5,0,0.9-0.2,0.9-0.7c0-0.6-0.7-0.8-1.7-1l0.9-1.7c-3.7-0.4-6.3-3.1-6.3-7.6c0-4.7,3.2-7.9,7.9-7.9
		c1.9,0,3.1,0.4,3.6,0.7l-0.5,1.6c-0.7-0.4-1.8-0.6-3-0.6c-3.5,0-5.9,2.3-5.9,6.2c0,3.7,2.1,6.1,5.8,6.1c1.2,0,2.4-0.2,3.2-0.6
		L493,513.4z"/>
	<path fill="white" d="M504.9,508.4c0,4-2.8,5.7-5.4,5.7c-2.9,0-5.2-2.1-5.2-5.6c0-3.6,2.4-5.7,5.4-5.7C502.8,502.8,504.9,505,504.9,508.4z
		 M496.3,508.5c0,2.4,1.4,4.2,3.3,4.2c1.9,0,3.3-1.8,3.3-4.2c0-1.8-0.9-4.2-3.2-4.2C497.3,504.3,496.3,506.4,496.3,508.5z"/>
	<path fill="white" d="M509.3,508L509.3,508c0.3-0.4,0.7-0.8,1-1.2l3.2-3.7h2.4l-4.2,4.4l4.8,6.4h-2.4l-3.7-5.2l-1,1.1v4.1h-1.9V498h1.9V508z"/>
	<path fill="white" d="M525,513.9v-6.4l-4.8-8.7h2.2l2.1,4.2c0.6,1.1,1,2.1,1.5,3.1h0c0.4-1,0.9-2,1.5-3.1l2.2-4.2h2.2l-5.1,8.7v6.4H525z"/>
	<path fill="white" d="M541.5,510.9c0,1.1,0,2.1,0.1,3h-1.7l-0.1-1.8h0c-0.5,0.9-1.7,2-3.6,2c-1.7,0-3.7-0.9-3.7-4.7V503h2v6
		c0,2.1,0.6,3.4,2.4,3.4c1.3,0,2.2-0.9,2.6-1.8c0.1-0.3,0.2-0.6,0.2-1V503h2V510.9z M533.9,500c0-0.6,0.5-1.1,1.1-1.1
		s1.1,0.5,1.1,1.1c0,0.6-0.4,1.1-1.1,1.1C534.3,501.1,533.9,500.6,533.9,500z M538,500c0-0.6,0.5-1.1,1.1-1.1s1.1,0.5,1.1,1.1
		c0,0.6-0.4,1.1-1.1,1.1C538.5,501.1,538,500.6,538,500z"/>
	<path fill="white" d="M546.7,508L546.7,508c0.3-0.4,0.7-0.8,1-1.2l3.2-3.7h2.4l-4.2,4.4l4.8,6.4h-2.4l-3.7-5.2l-1,1.1v4.1h-1.9V498h1.9V508z"/>
	<path fill="white" d="M555,511.8c0.6,0.4,1.6,0.8,2.6,0.8c1.4,0,2.1-0.7,2.1-1.6c0-0.9-0.6-1.5-2-2c-1.9-0.7-2.9-1.8-2.9-3.1
		c0-1.7,1.4-3.2,3.7-3.2c1.1,0,2.1,0.3,2.7,0.7l-0.5,1.4c-0.4-0.3-1.2-0.6-2.2-0.6c-1.2,0-1.8,0.7-1.8,1.5c0,0.9,0.6,1.3,2.1,1.8
		c1.9,0.7,2.8,1.7,2.8,3.3c0,1.9-1.5,3.2-4,3.2c-1.2,0-2.3-0.3-3-0.7L555,511.8z"/>
	<path fill="white" d="M565.2,508.8c0,2.7,1.7,3.8,3.7,3.8c1.4,0,2.3-0.2,3-0.6l0.3,1.4c-0.7,0.3-1.9,0.7-3.6,0.7c-3.3,0-5.3-2.2-5.3-5.5
		s1.9-5.8,5.1-5.8c3.5,0,4.5,3.1,4.5,5.1c0,0.4,0,0.7-0.1,0.9H565.2z M571,507.4c0-1.3-0.5-3.2-2.7-3.2c-2,0-2.9,1.8-3,3.2H571z"/>
	<path fill="white" d="M577.3,508L577.3,508c0.3-0.4,0.7-0.8,1-1.2l3.2-3.7h2.4l-4.2,4.4l4.8,6.4H582l-3.7-5.2l-1,1.1v4.1h-1.9V498h1.9V508z"/>
</g>
</svg>
